<?xml version="1.0" encoding="UTF-8" standalone="no"?>
<!-- Created with Inkscape (http://www.inkscape.org/) -->

<svg
   width="54.244873mm"
   height="49.87291mm"
   viewBox="0 0 54.244873 49.87291"
   version="1.1"
   id="svg1"
   xmlns="http://www.w3.org/2000/svg"
   xmlns:svg="http://www.w3.org/2000/svg">
  <defs
     id="defs1" />
  <g
     id="layer1"
     transform="translate(-57.25872,-90.749043)">
    <g
       id="g8"
       transform="translate(9.5512071,10.709134)">
      <path
         style="font-size:53.975px;line-height:1.7;font-family:'Neretto Sans';-inkscape-font-specification:'Neretto Sans';text-align:end;letter-spacing:0px;text-anchor:end;fill:#faaf01;fill-opacity:1;stroke-width:0.264583"
         d="m 83.816788,126.78227 c 4.048125,4.21005 10.90295,4.26402 15.166975,0 3.940177,-4.21005 3.940177,-10.90295 0,-15.16698 -4.371975,-4.26402 -10.956925,-4.21005 -15.166975,0 -4.264025,4.1021 -4.21005,11.11885 0,15.16698 z"
         id="path9" />
      <path
         style="font-size:53.975px;line-height:1.7;font-family:'Neretto Sans';-inkscape-font-specification:'Neretto Sans';text-align:end;letter-spacing:0px;text-anchor:end;fill:#fe7156;fill-opacity:1;stroke-width:0.264583"
         d="m 50.730114,98.445392 c 4.371975,4.210048 10.848975,4.264028 15.112999,0 4.156075,-4.156075 4.1021,-11.064875 0,-15.166975 -4.156074,-4.318 -10.848974,-4.264025 -15.112999,0 -4.1021,4.1021 -4.156075,11.0109 0,15.166975 z"
         id="path8" />
      <path
         style="font-size:53.975px;line-height:1.7;font-family:'Neretto Sans';-inkscape-font-specification:'Neretto Sans';text-align:end;letter-spacing:0px;text-anchor:end;fill:#4c4870;stroke-width:0.264583"
         d="M 47.707514,129.91282 H 65.141438 L 101.95239,80.039917 H 84.518463 Z"
         id="text8" />
    </g>
  </g>
</svg>
