<?xml version="1.0" encoding="UTF-8" standalone="no"?>
<!-- Created with Inkscape (http://www.inkscape.org/) -->

<svg
   width="274.78311mm"
   height="49.920162mm"
   viewBox="0 0 274.78311 49.920162"
   version="1.1"
   id="svg1"
   xmlns="http://www.w3.org/2000/svg"
   xmlns:svg="http://www.w3.org/2000/svg">
  <defs
     id="defs1" />
  <g
     id="layer1"
     transform="translate(-57.184469,-90.74905)">
    <g
       id="g8"
       transform="translate(9.5512071,10.709134)">
      <text
         xml:space="preserve"
         style="font-style:normal;font-variant:normal;font-weight:normal;font-stretch:normal;font-size:31.0444px;line-height:0.9;font-family:'Vaxen Rounded';-inkscape-font-specification:'Vaxen Rounded';text-align:end;letter-spacing:-1.32292px;writing-mode:lr-tb;direction:ltr;text-anchor:end;display:none;fill:#4c4870;fill-opacity:1;stroke-width:0.264583"
         x="108.102"
         y="101.81532"
         id="text7"><tspan
           id="tspan6"
           style="font-style:normal;font-variant:normal;font-weight:800;font-stretch:normal;font-size:31.0444px;line-height:0.9;font-family:'Strong Concrete';-inkscape-font-specification:'Strong Concrete Ultra-Bold';text-align:start;letter-spacing:-1.32292px;text-anchor:start;stroke-width:0.264583"
           x="0"
           y="0">libre</tspan><tspan
           style="font-style:normal;font-variant:normal;font-weight:normal;font-stretch:normal;font-size:31.0444px;line-height:0.9;font-family:'Strong Concrete';-inkscape-font-specification:'Strong Concrete';text-align:start;letter-spacing:-1.32292px;text-anchor:start;stroke-width:0.264583"
           x="0"
           y="0"
           id="tspan7">accounting</tspan></text>
      <path
         style="font-size:53.975px;line-height:1.7;font-family:'Neretto Sans';-inkscape-font-specification:'Neretto Sans';text-align:end;letter-spacing:0px;text-anchor:end;fill:#faaf01;fill-opacity:1;stroke-width:0.264583"
         d="m 83.816788,126.78227 c 4.048125,4.21005 10.90295,4.26402 15.166975,0 3.940177,-4.21005 3.940177,-10.90295 0,-15.16698 -4.371975,-4.26402 -10.956925,-4.21005 -15.166975,0 -4.264025,4.1021 -4.21005,11.11885 0,15.16698 z"
         id="path9" />
      <path
         style="font-size:53.975px;line-height:1.7;font-family:'Neretto Sans';-inkscape-font-specification:'Neretto Sans';text-align:end;letter-spacing:0px;text-anchor:end;fill:#fe7156;fill-opacity:1;stroke-width:0.264583"
         d="m 50.730114,98.445392 c 4.371975,4.210048 10.848975,4.264028 15.112999,0 4.156075,-4.156075 4.1021,-11.064875 0,-15.166975 -4.156074,-4.318 -10.848974,-4.264025 -15.112999,0 -4.1021,4.1021 -4.156075,11.0109 0,15.166975 z"
         id="path8" />
      <path
         style="font-size:53.975px;line-height:1.7;font-family:'Neretto Sans';-inkscape-font-specification:'Neretto Sans';text-align:end;letter-spacing:0px;text-anchor:end;fill:#4c4870;stroke-width:0.264583"
         d="M 47.707514,129.91282 H 65.141438 L 101.95239,80.039917 H 84.518463 Z"
         id="text8" />
      <g
         id="text10"
         style="font-size:31.0444px;line-height:0.9;font-family:'Vaxen Rounded';-inkscape-font-specification:'Vaxen Rounded';text-align:end;letter-spacing:-1.32292px;text-anchor:end;fill:#4c4870;stroke-width:0.264583"
         aria-label="libre&#10;accounting">
        <path
           style="font-weight:800;font-family:'Strong Concrete';-inkscape-font-specification:'Strong Concrete Ultra-Bold';text-align:start;text-anchor:start"
           d="M 116.54607,95.606443 V 80.239465 h -6.27096 v 21.668995 h 19.46483 v -6.302017 z m 14.75806,-15.398022 v 21.762119 h 6.27097 V 80.208421 Z m 30.34238,11.983138 c -0.2794,-0.682977 -0.65193,-1.303865 -1.14864,-1.862664 0.0621,-0.09313 0.12418,-0.217311 0.18626,-0.341488 0.34149,-0.869243 0.52776,-1.769531 0.52776,-2.700863 v -0.124178 c 0,-0.931332 -0.18627,-1.862664 -0.52776,-2.700862 -0.37253,-0.838199 -0.86924,-1.583265 -1.49013,-2.204153 -0.65193,-0.651932 -1.39699,-1.148642 -2.20415,-1.490131 -0.86924,-0.372533 -1.76953,-0.558799 -2.70086,-0.558799 h -7.38857 v 0 h -0.31044 -2.39042 c -0.0621,0 -0.0931,0 -0.15522,0 h -3.41489 V 101.9395 H 144.51 c 0.0621,0 0.12418,0 0.18627,0 h 10.55509 c 0.93134,0 1.83162,-0.18627 2.70087,-0.52775 0.8382,-0.37254 1.58326,-0.86925 2.20415,-1.490135 0.65193,-0.651933 1.14864,-1.396998 1.49013,-2.204153 0.37253,-0.869243 0.5588,-1.800575 0.5588,-2.731907 v -0.09313 c 0,-0.931332 -0.18627,-1.862664 -0.5588,-2.700863 z m -14.71504,-5.681125 h 7.35752 c 0.34149,0 0.65193,0.2794 0.65193,0.651932 v 0.124178 c 0,0.372533 -0.31044,0.651932 -0.65193,0.651932 h -7.35752 z m 8.97183,8.475121 c 0,0.372533 -0.2794,0.682977 -0.65194,0.682977 h -8.31989 v -1.428043 h 8.31989 c 0.37254,0 0.65194,0.2794 0.65194,0.651933 z m 29.38001,-0.77611 c -0.21731,-0.49671 -0.52776,-0.962376 -0.8382,-1.396998 0.31044,-0.434621 0.58984,-0.931332 0.80715,-1.459087 0.40358,-0.99342 0.62089,-2.04893 0.62089,-3.135484 0,-1.086554 -0.21731,-2.142064 -0.62089,-3.135484 -0.40357,-0.962377 -0.99342,-1.800575 -1.73848,-2.545641 -0.74507,-0.745066 -1.58327,-1.334909 -2.54564,-1.738486 -0.99342,-0.403578 -2.04893,-0.620888 -3.13549,-0.620888 h -7.23334 v 0 h -0.31045 -1.76953 c -0.0621,0 -0.0931,0 -0.15522,0 h -4.03577 v 4.004727 c 0,0.06209 0,0.124178 0,0.186266 v 7.730056 c 0,0.09313 0,0.217311 0,0.310444 v 9.49959 h 6.30201 v -5.61904 h 7.88528 c 0.68298,0 1.08655,0.434621 1.08655,0.745065 v 4.873975 h 6.30202 v -4.873975 c 0,-0.962376 -0.21731,-1.924752 -0.62089,-2.82504 z m -7.45066,-4.222038 h -7.23334 V 86.47939 h 7.23334 c 0.96238,0 1.73849,0.77611 1.73849,1.738486 0,0.993421 -0.77611,1.769531 -1.73849,1.769531 z m 16.9312,5.65008 v -1.396998 h 15.39802 v -6.302013 h -15.39802 v -1.396998 h 15.39802 V 80.239465 H 188.49288 V 101.9395 h 21.70003 v -6.302013 z"
           id="path10" />
        <path
           style="font-family:'Strong Concrete';-inkscape-font-specification:'Strong Concrete';text-align:start;text-anchor:start"
           d="m 121.04751,107.96739 h -3.0113 l -9.81004,21.82421 h 3.60116 l 2.26624,-5.02919 h 10.92762 l 2.2352,5.02919 h 3.6322 z m -5.49486,13.50431 4.00473,-8.81661 3.97368,8.81661 z m 33.16744,1.6764 c -1.36596,2.11102 -3.66324,3.35279 -6.11575,3.35279 h -2.29729 c -1.95579,0 -3.78741,-0.77611 -5.18441,-2.20415 -1.397,-1.45909 -2.17311,-3.38384 -2.17311,-5.43277 0,-2.04893 0.77611,-3.97368 2.17311,-5.40172 1.397,-1.45909 3.22862,-2.2352 5.18441,-2.2352 h 2.29729 c 1.24177,0 2.42146,0.31044 3.47697,0.90029 1.05551,0.58984 1.9558,1.39699 2.60773,2.42146 l 2.76295,-1.83162 c -1.98684,-3.01131 -5.30859,-4.81188 -8.84765,-4.81188 h -2.29729 c -1.42804,0 -2.82504,0.31044 -4.15995,0.86924 -1.27282,0.5588 -2.42146,1.36596 -3.38384,2.35938 -0.99342,1.02446 -1.73848,2.1731 -2.29728,3.47697 -0.52776,1.36595 -0.80716,2.79399 -0.80716,4.25308 0,1.49013 0.2794,2.91818 0.80716,4.25308 0.5588,1.30387 1.30386,2.48356 2.29728,3.47698 0.96238,1.02446 2.11102,1.80057 3.38384,2.35937 1.33491,0.58984 2.73191,0.86924 4.15995,0.86924 h 2.29729 c 3.5701,0 6.89186,-1.83162 8.8787,-4.87397 z m 22.33294,0 c -1.36596,2.11102 -3.66324,3.35279 -6.11575,3.35279 H 162.64 c -1.9558,0 -3.78742,-0.77611 -5.18442,-2.20415 -1.397,-1.45909 -2.17311,-3.38384 -2.17311,-5.43277 0,-2.04893 0.77611,-3.97368 2.17311,-5.40172 1.397,-1.45909 3.22862,-2.2352 5.18442,-2.2352 h 2.29728 c 1.24178,0 2.42146,0.31044 3.47697,0.90029 1.05551,0.58984 1.9558,1.39699 2.60773,2.42146 l 2.76296,-1.83162 c -1.98685,-3.01131 -5.3086,-4.81188 -8.84766,-4.81188 H 162.64 c -1.42805,0 -2.82504,0.31044 -4.15995,0.86924 -1.27282,0.5588 -2.42147,1.36596 -3.38384,2.35938 -0.99342,1.02446 -1.73849,2.1731 -2.29729,3.47697 -0.52775,1.36595 -0.80715,2.79399 -0.80715,4.25308 0,1.49013 0.2794,2.91818 0.80715,4.25308 0.5588,1.30387 1.30387,2.48356 2.29729,3.47698 0.96237,1.02446 2.11102,1.80057 3.38384,2.35937 1.33491,0.58984 2.7319,0.86924 4.15995,0.86924 h 2.29728 c 3.57011,0 6.89186,-1.83162 8.8787,-4.87397 z m 25.99618,-8.63034 c -0.52775,-1.27282 -1.30386,-2.42147 -2.26624,-3.38384 -0.99342,-0.99342 -2.14206,-1.73849 -3.41488,-2.29729 -1.30387,-0.5588 -2.70086,-0.8382 -4.15995,-0.8382 h -2.20415 c -1.45909,0 -2.85609,0.2794 -4.15995,0.8382 -1.27282,0.5588 -2.42147,1.30387 -3.41489,2.29729 -0.96237,0.96237 -1.73848,2.11102 -2.26624,3.38384 -0.5588,1.30386 -0.8382,2.70086 -0.8382,4.15995 v 0.40357 c 0,1.42804 0.2794,2.82504 0.8382,4.12891 0.52776,1.27282 1.30387,2.42146 2.26624,3.41488 0.99342,0.96238 2.14207,1.73849 3.41489,2.26624 1.30386,0.5588 2.70086,0.8382 4.15995,0.8382 h 2.20415 c 1.45909,0 2.85608,-0.2794 4.15995,-0.8382 1.27282,-0.52775 2.42146,-1.30386 3.41488,-2.26624 0.96238,-0.99342 1.73849,-2.14206 2.26624,-3.41488 0.5588,-1.30387 0.8382,-2.70087 0.8382,-4.12891 v -0.40357 c 0,-1.45909 -0.2794,-2.85609 -0.8382,-4.15995 z m -2.4525,4.56352 c 0,1.9558 -0.74507,3.81846 -2.14207,5.21546 -1.39699,1.397 -3.25966,2.14207 -5.2465,2.14207 h -2.20415 c -1.98684,0 -3.84951,-0.74507 -5.24651,-2.14207 -1.39699,-1.397 -2.1731,-3.25966 -2.1731,-5.21546 v -0.40357 c 0,-1.98685 0.77611,-3.81847 2.1731,-5.21546 1.397,-1.397 3.25967,-2.17311 5.24651,-2.17311 h 2.20415 c 1.98684,0 3.84951,0.77611 5.2465,2.17311 1.397,1.39699 2.14207,3.22861 2.14207,5.21546 z m 23.32636,-11.08285 v 11.85896 c 0,1.73849 -0.71402,3.38384 -2.01789,4.65666 -1.30386,1.24178 -3.07339,1.9558 -4.93606,1.9558 h -1.30386 c -1.89371,0 -3.6322,-0.71402 -4.96711,-1.9558 -1.27282,-1.27282 -2.01788,-2.91817 -2.01788,-4.65666 v -11.85896 h -3.25966 v 11.85896 c 0,1.33491 0.24835,2.63878 0.80715,3.88055 0.52776,1.17969 1.24178,2.2352 2.20415,3.13549 0.93134,0.90028 2.04893,1.61431 3.25967,2.11102 1.24177,0.49671 2.57668,0.77611 3.97368,0.77611 h 1.30386 c 1.36596,0 2.70087,-0.2794 3.97369,-0.77611 1.21073,-0.49671 2.29728,-1.21074 3.22861,-2.11102 0.96238,-0.90029 1.70745,-1.9558 2.2352,-3.13549 0.52776,-1.24177 0.80715,-2.54564 0.80715,-3.88055 v -11.85896 z m 27.64149,21.79317 v -21.82421 h -3.29071 v 17.35382 l -14.71504,-17.35382 h -3.78742 v 0 21.82421 h 3.29071 l -0.031,-17.35382 14.74609,17.35382 z m 1.53316,-21.82421 v 3.2907 h 9.25123 v 18.53351 h 3.2907 v -18.53351 h 9.28228 v -3.2907 z m 26.61707,21.82421 v -21.85526 h -3.25966 v 21.85526 z m 24.87854,0 v -21.82421 h -3.29071 v 17.35382 l -14.71504,-17.35382 h -3.78742 v 0 21.82421 h 3.29071 l -0.031,-17.35382 14.74609,17.35382 z m 23.82304,-12.57298 h -13.03864 v 3.2907 h 9.74794 v 5.96053 c -3.01131,0 -7.29544,0 -7.35752,0 -2.11102,0 -4.09787,-0.80715 -5.588,-2.2352 -1.49013,-1.42804 -2.32833,-3.35279 -2.32833,-5.37068 0,-2.01788 0.8382,-3.91159 2.32833,-5.33964 1.49013,-1.45908 3.47698,-2.26624 5.588,-2.26624 h 2.42146 c 0.90029,0 1.73848,0.21731 2.54564,0.58985 0.74506,0.40357 1.397,0.93133 1.89371,1.58326 l 2.63877,-1.98684 c -0.80715,-1.05551 -1.86266,-1.92475 -3.07339,-2.5146 -1.21074,-0.62088 -2.60773,-0.93133 -4.00473,-0.93133 h -2.42146 c -1.49014,0 -2.94922,0.2794 -4.34622,0.8382 -1.33491,0.52776 -2.5146,1.33491 -3.53906,2.32833 -1.02447,0.99342 -1.86267,2.14206 -2.42147,3.44593 -0.58984,1.36595 -0.86924,2.79399 -0.86924,4.25308 0,1.49013 0.2794,2.91818 0.86924,4.25308 0.5588,1.30387 1.397,2.48356 2.42147,3.47698 1.02446,0.99342 2.20415,1.76953 3.53906,2.32833 1.397,0.5588 2.85608,0.8382 4.34622,0.8382 0.0621,0 6.27096,0 8.97183,0 h 1.64535 l 0.031,-9.25124 v 0 -1.17968 -0.2794 0 z"
           id="path11" />
      </g>
    </g>
  </g>
</svg>
